<svg width="62" height="73" viewBox="0 0 62 73" fill="none" xmlns="http://www.w3.org/2000/svg">
<path d="M22.9491 14.3279C22.6417 14.273 22.3398 14.4212 22.1587 14.6681L22.1203 14.734C22.0434 14.8108 21.9776 14.9041 21.9337 15.0084C21.8239 15.2443 21.7855 15.5352 21.7745 15.7931C21.769 16.0181 21.7855 16.2376 21.8184 16.4571C21.8184 16.6107 21.8184 16.7644 21.8239 16.918C21.8349 17.1485 21.9062 17.39 22.0489 17.582C22.241 17.8399 22.5868 17.9826 22.9052 17.9113C23.2345 17.8344 23.498 17.6149 23.6352 17.3022C23.723 17.1046 23.7395 16.8851 23.7505 16.6711C23.7779 16.5449 23.7944 16.4187 23.8054 16.2925C23.8438 15.8425 23.8273 15.2937 23.6187 14.8822C23.4815 14.6023 23.2565 14.3828 22.9491 14.3279Z" fill="#242647"/>
<path d="M35.8751 16.9125C35.8861 17.143 35.9575 17.3845 36.1002 17.5765C36.2923 17.8344 36.6381 17.9771 36.9565 17.9058C37.2858 17.829 37.5492 17.6095 37.6865 17.2967C37.7743 17.0991 37.7908 16.8796 37.8017 16.6656C37.8292 16.5394 37.8456 16.4132 37.8566 16.287C37.895 15.837 37.8786 15.2882 37.67 14.8767C37.5328 14.6023 37.3132 14.3828 37.0004 14.3279C36.693 14.273 36.3911 14.4212 36.21 14.6681L36.1715 14.734C36.0947 14.8108 36.0288 14.9041 35.9849 15.0084C35.8752 15.2443 35.8367 15.5352 35.8257 15.7931C35.8203 16.0181 35.8367 16.2376 35.8697 16.4571C35.8642 16.6052 35.8642 16.7589 35.8751 16.9125Z" fill="#242647"/>
<path d="M32.7413 20.1886C33.0103 19.552 32.1595 19.1295 31.7369 19.6124C31.4405 19.9471 31.2154 20.2599 30.8093 20.4794C30.4086 20.6934 29.953 20.8141 29.4974 20.8251C29.0034 20.8361 28.5094 20.7318 28.0319 20.6056C27.7739 20.5398 27.5214 20.441 27.2854 20.3258C27.0329 20.205 26.8079 20.0733 26.5225 20.0733C26.4127 20.0733 26.2919 20.1556 26.3194 20.2819C26.4511 20.8855 27.1702 21.2696 27.6696 21.5495C28.2734 21.8897 28.9815 22.0214 29.6731 21.994C30.2549 21.972 30.8477 21.8129 31.3581 21.533C31.9015 21.2257 32.4889 20.7757 32.7413 20.1886Z" fill="#242647"/>
<path d="M59.4554 12.8353C58.182 12.3085 56.5902 12.6158 55.5913 13.5597C54.4057 14.6791 54.0489 16.4516 54.4825 17.9936C54.9545 19.6728 56.2609 20.9239 57.7758 21.7086C57.9185 21.7855 58.0503 21.7964 58.171 21.7635C58.0942 21.9117 58.0228 22.0543 57.946 22.2025C57.194 23.7061 56.4475 25.2152 55.6955 26.7187C55.1027 27.9041 54.477 29.2704 53.1926 29.8357C51.8918 30.4064 50.278 30.3021 48.8894 30.3789C47.0451 30.4777 45.2009 30.582 43.3566 30.6862C42.418 30.7411 41.4794 30.796 40.5408 30.8563C40.2499 30.8728 39.9645 30.8947 39.6736 30.9112C41.1501 30.1978 42.5058 29.3308 43.7079 28.3321C47.3086 25.3523 49.5755 21.1873 49.57 16.5723C49.57 11.9573 47.3086 7.79227 43.7079 4.81255C40.1072 1.82734 35.1562 0 29.7058 0C24.2554 0 19.3044 1.82734 15.7037 4.81255C12.103 7.79227 9.83614 11.9573 9.84162 16.5723C9.84162 21.1873 12.103 25.3523 15.7037 28.3321C17.4547 29.7863 19.5295 30.9606 21.8238 31.7837C21.5384 31.7618 21.2475 31.7453 20.962 31.7288C20.0235 31.6685 19.0849 31.6136 18.1463 31.5587C16.302 31.4545 14.4577 31.3502 12.6135 31.2514C11.2248 31.1746 9.61109 31.2789 8.31023 30.7082C7.02583 30.143 6.40011 28.7766 5.80731 27.5913C5.05534 26.0877 4.30885 24.5786 3.55687 23.075C3.48552 22.9269 3.40868 22.7842 3.33184 22.636C3.4471 22.6635 3.58432 22.6525 3.72703 22.5812C5.24195 21.7964 6.5483 20.5453 7.02034 18.8661C7.45396 17.3241 7.09719 15.5516 5.9116 14.4322C4.91263 13.4883 3.32085 13.181 2.04744 13.7078C0.669734 14.2785 0.0110737 15.7327 9.59548e-05 17.1595C-0.0108818 18.9319 0.922225 20.5343 1.69067 22.0708C2.57437 23.8378 3.45808 25.6048 4.34179 27.3718C5.04436 28.7711 5.69753 30.3954 7.02584 31.3283C8.44745 32.327 10.2533 32.2502 11.9109 32.316C13.8704 32.3874 15.8245 32.4587 17.784 32.53C18.761 32.563 19.7435 32.6014 20.7205 32.6233C21.2969 32.6398 21.8952 32.6782 22.4825 32.6617C22.0379 33.5836 21.6811 34.5494 21.3243 35.4988C20.8687 36.7115 20.4571 37.9407 20.0783 39.1809C19.3319 41.6393 18.7281 44.1416 18.2506 46.6659C17.8279 48.9103 17.1198 51.5882 18.0584 53.7887C18.8269 55.5886 20.5449 56.7465 22.3068 57.4434C22.9325 57.6903 23.5802 57.8934 24.2389 58.069C24.1621 58.9744 24.1895 59.9018 24.1621 60.8072C24.1291 61.8828 24.0852 62.9583 24.0248 64.0394C23.9205 65.8887 23.7559 67.7325 23.5473 69.5763C22.3233 69.0166 21.0005 68.7367 19.6337 68.7861C18.3494 68.8355 16.2746 69.2086 16.0715 70.7945C15.9782 71.5299 16.4118 72.1993 17.0265 72.5615C17.7675 72.9895 18.6622 72.9237 19.4746 72.8029C21.0663 72.567 22.5703 71.9908 23.937 71.1567C24.2883 71.228 24.6725 71.0634 24.7109 70.6354C24.9305 68.4513 25.0787 66.2618 25.1501 64.0668C25.1885 62.9858 25.2049 61.9047 25.1994 60.8292C25.194 59.9896 25.2159 59.128 25.1391 58.283C26.5607 58.5848 28.0152 58.7494 29.4423 58.7988C31.4348 58.8756 33.4712 58.7549 35.4362 58.3543C35.3648 59.1719 35.3868 60.0115 35.3813 60.8237C35.3758 61.9047 35.3923 62.9858 35.4307 64.0613C35.502 66.2563 35.6557 68.4459 35.8698 70.6299C35.9137 71.0524 36.2924 71.2225 36.6437 71.1512C38.0104 71.9853 39.5144 72.5615 41.1062 72.7975C41.9185 72.9182 42.8132 72.984 43.5542 72.556C44.1744 72.1993 44.6081 71.5244 44.5093 70.789C44.3007 69.2031 42.2259 68.83 40.947 68.7806C39.5803 68.7312 38.2574 69.0111 37.0334 69.5708C36.8248 67.7325 36.6602 65.8832 36.5559 64.0339C36.4955 62.9583 36.4516 61.8828 36.4187 60.8017C36.3912 59.9182 36.4132 59.0238 36.3473 58.1403C36.4845 58.1074 36.6218 58.0744 36.7535 58.036C38.735 57.4818 40.7055 56.5105 41.924 54.7929C43.2413 52.9326 43.4609 50.6004 43.2907 48.389C43.0767 45.6452 42.418 42.8905 41.6989 40.24C40.925 37.3865 39.9645 34.5878 38.8118 31.8605C38.7954 31.8221 38.7789 31.7947 38.7569 31.7618C39.4321 31.8057 40.1237 31.7563 40.7878 31.7398C41.7648 31.7124 42.7473 31.6795 43.7243 31.6465C45.6839 31.5752 47.6379 31.5093 49.5974 31.4325C51.2551 31.3722 53.0664 31.4435 54.4825 30.4448C55.8108 29.5119 56.464 27.8931 57.1666 26.4883C58.0503 24.7213 58.934 22.9543 59.8177 21.1873C60.5861 19.6453 61.5192 18.0485 61.5083 16.276C61.4918 14.8602 60.8331 13.406 59.4554 12.8353ZM2.91468 21.8294C2.40421 20.8471 1.89375 19.8539 1.53698 18.8222C1.13629 17.6753 1.01553 16.1388 2.00353 15.2388C2.83234 14.4816 4.22102 14.6297 5.0224 15.3431C5.92806 16.1553 6.13664 17.5601 5.76888 18.6795C5.3682 19.8978 4.36923 20.8416 3.25499 21.4178C3.06288 21.5166 2.95859 21.6647 2.91468 21.8294ZM20.1168 71.3927C19.5459 71.5189 18.9312 71.6451 18.3439 71.6231C17.9651 71.6067 17.1747 71.4036 17.3778 70.8604C17.515 70.4872 18.1353 70.3226 18.4701 70.2403C19.03 70.1086 19.6228 70.0537 20.1991 70.0702C20.995 70.0921 21.7854 70.2458 22.5319 70.5201C21.7634 70.9043 20.9511 71.2061 20.1168 71.3927ZM40.3761 70.0702C40.9525 70.0537 41.5453 70.1086 42.1051 70.2403C42.44 70.3171 43.0602 70.4872 43.1974 70.8604C43.4005 71.4036 42.6101 71.6067 42.2259 71.6231C41.6386 71.6506 41.0238 71.5189 40.453 71.3927C39.6132 71.2061 38.8063 70.9043 38.0379 70.5147C38.7899 70.2403 39.5803 70.0921 40.3761 70.0702ZM11.1535 16.5778C11.1535 12.4073 13.1898 8.6154 16.5435 5.83323C19.8917 3.05654 24.5463 1.32249 29.7058 1.32249C34.8598 1.32249 39.5199 3.05654 42.8681 5.83323C46.2163 8.60992 48.2527 12.4018 48.2581 16.5778C48.2581 20.7483 46.2218 24.5402 42.8681 27.3224C39.5199 30.0991 34.8653 31.8331 29.7058 31.8331C24.5518 31.8331 19.8917 30.0991 16.5435 27.3224C13.1898 24.5402 11.1589 20.7483 11.1535 16.5778ZM41.5453 46.3037C41.8801 48.2518 42.16 50.3864 41.5508 52.3125C40.936 54.2441 39.465 55.5063 37.6262 56.2471C35.6447 57.0428 33.4218 57.3172 31.2976 57.3885C28.9264 57.4708 26.4729 57.2239 24.1785 56.6093C22.5044 56.1593 20.7041 55.413 19.6447 53.9698C18.3439 52.1973 18.9202 49.7169 19.2166 47.7085C19.6118 45.058 20.1826 42.4295 20.9127 39.8504C21.2749 38.5718 21.6756 37.2987 22.1037 36.042C22.4989 34.8787 22.9765 33.7428 23.3552 32.5739C23.4101 32.563 23.4705 32.5575 23.5253 32.541C23.6077 32.5245 23.6735 32.4587 23.712 32.3819C25.6056 32.8812 27.6145 33.1501 29.7003 33.1501C32.4557 33.1501 35.0794 32.6837 37.467 31.8331C37.3682 32.0032 37.3463 32.2172 37.4451 32.4477C39.3333 36.8981 40.7219 41.5405 41.5453 46.3037ZM59.9659 17.9442C59.6036 18.9758 59.0986 19.9691 58.5882 20.9514C58.5443 20.7867 58.44 20.6386 58.2533 20.5398C57.1391 19.9581 56.1401 19.0198 55.7395 17.8015C55.3717 16.6821 55.5748 15.2773 56.4859 14.4651C57.2873 13.7462 58.676 13.6036 59.5048 14.3608C60.4873 15.2608 60.3666 16.7973 59.9659 17.9442Z" fill="#242647"/>
</svg>
